<svg xmlns="http://www.w3.org/2000/svg" width="1200" height="630" viewBox="0 0 1200 630">
  <defs>
    <linearGradient id="bg" x1="0%" y1="0%" x2="100%" y2="100%">
      <stop offset="0%" style="stop-color:#1e40af"/>
      <stop offset="100%" style="stop-color:#7c3aed"/>
    </linearGradient>
  </defs>
  <rect width="1200" height="630" fill="url(#bg)"/>
  <!-- Grid pattern -->
  <g opacity="0.08" stroke="white" stroke-width="1">
    <line x1="0" y1="105" x2="1200" y2="105"/>
    <line x1="0" y1="210" x2="1200" y2="210"/>
    <line x1="0" y1="315" x2="1200" y2="315"/>
    <line x1="0" y1="420" x2="1200" y2="420"/>
    <line x1="0" y1="525" x2="1200" y2="525"/>
    <line x1="120" y1="0" x2="120" y2="630"/>
    <line x1="240" y1="0" x2="240" y2="630"/>
    <line x1="360" y1="0" x2="360" y2="630"/>
    <line x1="480" y1="0" x2="480" y2="630"/>
    <line x1="600" y1="0" x2="600" y2="630"/>
    <line x1="720" y1="0" x2="720" y2="630"/>
    <line x1="840" y1="0" x2="840" y2="630"/>
    <line x1="960" y1="0" x2="960" y2="630"/>
    <line x1="1080" y1="0" x2="1080" y2="630"/>
  </g>
  <!-- Cards decorative -->
  <rect x="780" y="80" width="340" height="190" rx="16" fill="white" opacity="0.1"/>
  <rect x="820" y="300" width="280" height="150" rx="16" fill="white" opacity="0.07"/>
  <rect x="840" y="470" width="220" height="100" rx="16" fill="white" opacity="0.05"/>
  <!-- Logo -->
  <text x="100" y="200" font-family="Georgia, serif" font-size="72" font-weight="900" fill="white" letter-spacing="-2">Calcola</text>
  <text x="472" y="200" font-family="Georgia, serif" font-size="72" font-weight="900" fill="#fbbf24" letter-spacing="-2">Pro</text>
  <!-- Tagline -->
  <text x="100" y="265" font-family="Arial, sans-serif" font-size="28" fill="rgba(255,255,255,0.75)" letter-spacing="2">STRUMENTI GRATUITI PER PROFESSIONISTI ITALIANI</text>
  <!-- Divider -->
  <rect x="100" y="300" width="80" height="4" rx="2" fill="#fbbf24"/>
  <!-- Description -->
  <text x="100" y="365" font-family="Arial, sans-serif" font-size="32" fill="white">Mutuo · Freelance · Stipendio · IVA · BMI</text>
  <text x="100" y="415" font-family="Arial, sans-serif" font-size="32" fill="white">TFR · Affitto · TDEE · P.IVA · Km</text>
  <!-- Pills -->
  <rect x="100" y="460" width="175" height="46" rx="23" fill="rgba(255,255,255,0.15)"/>
  <text x="188" y="489" font-family="Arial, sans-serif" font-size="20" fill="white" text-anchor="middle">10 Calcolatori</text>
  <rect x="290" y="460" width="145" height="46" rx="23" fill="rgba(255,255,255,0.15)"/>
  <text x="363" y="489" font-family="Arial, sans-serif" font-size="20" fill="white" text-anchor="middle">5 Guide</text>
  <rect x="450" y="460" width="145" height="46" rx="23" fill="rgba(251,191,36,0.3)"/>
  <text x="523" y="489" font-family="Arial, sans-serif" font-size="20" fill="#fbbf24" text-anchor="middle">100% Gratis</text>
  <!-- URL -->
  <text x="100" y="570" font-family="Arial, sans-serif" font-size="22" fill="rgba(255,255,255,0.5)">calcolapro.it</text>
</svg>
